<svg xmlns="http://www.w3.org/2000/svg" width="24" height="26" viewBox="0 0 24 26">
    <g fill="none" fill-rule="evenodd">
        <path fill="#D8D8D8" fill-opacity="0" d="M-4-3h32v32H-4z"/>
        <path fill="#FFD40A" fill-rule="nonzero" stroke="#FFD40A" stroke-width=".5" d="M1 9.622l.115-.235 10.702-8.324a.297.297 0 0 1 .366 0l10.702 8.324.115.235v13.08a2.676 2.676 0 0 1-2.676 2.676H3.676A2.676 2.676 0 0 1 1 22.703V9.622zm.595.145v12.936c0 1.15.931 2.08 2.08 2.08h16.65c1.149 0 2.08-.93 2.08-2.08V9.767L12 1.674 1.595 9.767z"/>
    </g>
</svg>
