<svg xmlns="http://www.w3.org/2000/svg" width="30.986" height="37.184" viewBox="0 0 30.986 37.184"><defs><style>.a{fill:#253c80;}</style></defs><path class="a" d="M30.888,0H6.1V3.1H30.888ZM6.1,37.184H30.888v-3.1H6.1ZM30.888,6.2H6.1A3.108,3.108,0,0,0,3,9.3V27.888a3.108,3.108,0,0,0,3.1,3.1H30.888a3.108,3.108,0,0,0,3.1-3.1V9.3A3.108,3.108,0,0,0,30.888,6.2ZM18.493,10.458a3.486,3.486,0,1,1-3.486,3.486A3.491,3.491,0,0,1,18.493,10.458Zm7.747,15.88H10.747V24.014c0-2.587,5.159-3.873,7.747-3.873s7.747,1.286,7.747,3.873Z" transform="translate(-3)"/></svg>