<svg xmlns="http://www.w3.org/2000/svg" width="33" height="30" viewBox="0 0 33 30">
    <g fill="none" fill-rule="evenodd">
        <path fill="#D8D8D8" fill-opacity="0" d="M1-1h32v32H1z"/>
        <g fill="#FFF" fill-rule="nonzero">
            <path d="M12.974 28.597V27.22a3.713 3.713 0 0 0-3.714-3.713H3.753A3.713 3.713 0 0 0 .04 27.22v1.377a.96.96 0 1 0 1.92 0V27.22c0-.99.803-1.793 1.793-1.793H9.26c.99 0 1.794.803 1.794 1.793v1.377a.96.96 0 1 0 1.92 0zM6.507 22.673a3.713 3.713 0 1 0 0-7.427 3.713 3.713 0 0 0 0 7.427zm0-1.92a1.793 1.793 0 1 1 0-3.587 1.793 1.793 0 0 1 0 3.587zM32.686 14.517V13.14a3.713 3.713 0 0 0-3.714-3.713h-5.507a3.713 3.713 0 0 0-3.713 3.713v1.377a.96.96 0 1 0 1.92 0V13.14c0-.99.803-1.793 1.793-1.793h5.507c.99 0 1.794.803 1.794 1.793v1.377a.96.96 0 1 0 1.92 0zM26.219 8.593a3.713 3.713 0 1 0 0-7.427 3.713 3.713 0 0 0 0 7.427zm0-1.92a1.793 1.793 0 1 1 0-3.587 1.793 1.793 0 0 1 0 3.587z"/>
            <path stroke="#FFF" stroke-width=".5" d="M30.283 18.426l-1.998-2.22-2.215 2.003a.61.61 0 0 0 .816.906l.714-.645c-.814 5.657-5.974 9.713-11.693 9.104a.61.61 0 1 0-.129 1.213c.426.046.848.068 1.267.068 5.861 0 10.933-4.344 11.765-10.243l.569.632a.607.607 0 0 0 .86.044.61.61 0 0 0 .044-.862zM21.429 3.458L19.46 1.21a.62.62 0 0 0-.867-.063.6.6 0 0 0-.064.856l.529.603C12.572 2.133 6.844 6.876 6.225 13.29a.61.61 0 0 0 .613.664.612.612 0 0 0 .612-.549C8.01 7.6 13.232 3.32 19.113 3.827l-.767.654a.6.6 0 0 0-.064.854.618.618 0 0 0 .867.063l2.28-1.94z"/>
        </g>
    </g>
</svg>
