<svg xmlns="http://www.w3.org/2000/svg" width="24" height="24" viewBox="0 0 24 24">
    <g fill="none" fill-rule="evenodd">
        <path fill="#D8D8D8" fill-opacity="0" d="M-4-5h32v32H-4z"/>
        <g fill="#FFF" fill-rule="nonzero">
            <path d="M12 .313C18.455.313 23.688 5.545 23.688 12c0 6.455-5.233 11.688-11.688 11.688C5.545 23.688.312 18.454.312 12 .313 5.545 5.545.312 12 .312zm0 1.375C6.305 1.688 1.687 6.304 1.687 12c0 5.695 4.618 10.313 10.313 10.313S22.313 17.694 22.313 12 17.694 1.687 12 1.687z"/>
            <path d="M11.313 16.4V12a.687.687 0 1 1 1.374 0v4.4a.687.687 0 1 1-1.374 0zM12 9.8a1.1 1.1 0 1 0 0-2.2 1.1 1.1 0 0 0 0 2.2zm.275-1.1a.275.275 0 1 1-.55 0 .275.275 0 0 1 .55 0z"/>
        </g>
    </g>
</svg>
