<svg height='100px' width='100px'  fill="#000000" xmlns="http://www.w3.org/2000/svg" xmlns:xlink="http://www.w3.org/1999/xlink" version="1.1" x="0px" y="0px" viewBox="0 0 70 70" style="enable-background:new 0 0 70 70;" xml:space="preserve"><path d="M53.6254883,20.6953125h-5.1704102c-0.5522461,0-1,0.4477539-1,1v18.0405273c0,0.5522461,0.4477539,1,1,1h5.1704102  c0.5522461,0,1-0.4477539,1-1V21.6953125C54.6254883,21.1430664,54.1777344,20.6953125,53.6254883,20.6953125z   M52.6254883,38.7358398h-3.1704102V22.6953125h3.1704102V38.7358398z"></path><path d="M42.9321289,27.0288086h-5.1708984c-0.5522461,0-1,0.4477539-1,1v11.7070312c0,0.5522461,0.4477539,1,1,1h5.1708984  c0.5522461,0,1-0.4477539,1-1V28.0288086C43.9321289,27.4765625,43.484375,27.0288086,42.9321289,27.0288086z   M41.9321289,38.7358398h-3.1708984v-9.7070312h3.1708984V38.7358398z"></path><path d="M32.2387695,23.0668945h-5.1708984c-0.5522461,0-1,0.4477539-1,1v15.6689453c0,0.5522461,0.4477539,1,1,1h5.1708984  c0.5522461,0,1-0.4477539,1-1V24.0668945C33.2387695,23.5146484,32.7910156,23.0668945,32.2387695,23.0668945z   M31.2387695,38.7358398h-3.1708984V25.0668945h3.1708984V38.7358398z"></path><path d="M21.5449219,31.6953125h-5.1704102c-0.5522461,0-1,0.4477539-1,1v7.0405273c0,0.5522461,0.4477539,1,1,1h5.1704102  c0.5522461,0,1-0.4477539,1-1v-7.0405273C22.5449219,32.1430664,22.097168,31.6953125,21.5449219,31.6953125z   M20.5449219,38.7358398h-3.1704102v-5.0405273h3.1704102V38.7358398z"></path><path d="M18.9599609,28.9208984c1.9824219,0,3.5952148-1.612793,3.5952148-3.5957031  c0-0.5502319-0.1341553-1.06604-0.355957-1.5327148l5.1849365-4.0209351c0.6209106,0.5102539,1.40448,0.8295288,2.269165,0.8295288  c1.2125854,0,2.2818604-0.6071777,2.9334717-1.5291138l4.2319946,1.956604  c0.3156128,1.6627197,1.7746582,2.9250488,3.5278931,2.9250488c1.9829102,0,3.5957031-1.612793,3.5957031-3.5957031  c0-0.4198608-0.0859375-0.8169556-0.21875-1.1918335l4.4972534-3.2789917  c0.6586914,0.8403931,1.6710205,1.3912354,2.8191528,1.3912354c1.9829102,0,3.5957031-1.612793,3.5957031-3.5952148  c0-1.9829102-1.612793-3.5957031-3.5957031-3.5957031c-1.9824219,0-3.5952148,1.612793-3.5952148,3.5957031  c0,0.093811,0.0206299,0.1819458,0.02771,0.2739868l-4.9168701,3.5849609  c-0.6115112-0.480896-1.3723145-0.7798462-2.2089844-0.7798462c-1.4758911,0-2.7442627,0.8950195-3.2976685,2.1695557  l-3.8162842-1.7644653c0.0025024-0.0546875,0.0162964-0.1061401,0.0162964-0.161438  c0-1.9829102-1.612793-3.5957031-3.5957031-3.5957031s-3.5957031,1.612793-3.5957031,3.5957031  c0,0.3909302,0.0784302,0.760498,0.1943359,1.1131592l-5.3804321,4.1725464  c-0.5550537-0.3510742-1.2075806-0.5620728-1.9115601-0.5620728c-1.9829102,0-3.5957031,1.612793-3.5957031,3.5957031  S16.9770508,28.9208984,18.9599609,28.9208984z M51.0400391,12.0874023c0.8798828,0,1.5957031,0.7158203,1.5957031,1.5957031  c0,0.8793945-0.7158203,1.5952148-1.5957031,1.5952148c-0.8793945,0-1.5952148-0.7158203-1.5952148-1.5952148  C49.4448242,12.8032227,50.1606445,12.0874023,51.0400391,12.0874023z M40.3466797,18.762207  c0.8798828,0,1.5957031,0.7158203,1.5957031,1.5957031s-0.7158203,1.5957031-1.5957031,1.5957031  s-1.5957031-0.7158203-1.5957031-1.5957031S39.4667969,18.762207,40.3466797,18.762207z M29.6533203,15.4101562  c0.8798828,0,1.5957031,0.7158203,1.5957031,1.5957031c0,0.8793945-0.7158203,1.5952148-1.5957031,1.5952148  s-1.5957031-0.7158203-1.5957031-1.5952148C28.0576172,16.1259766,28.7734375,15.4101562,29.6533203,15.4101562z   M18.9599609,23.7294922c0.8793945,0,1.5952148,0.7158203,1.5952148,1.5957031s-0.7158203,1.5957031-1.5952148,1.5957031  c-0.8798828,0-1.5957031-0.7158203-1.5957031-1.5957031S18.0800781,23.7294922,18.9599609,23.7294922z"></path><path d="M67.9418945,53.012207V8.4189453c0-1.7109375-1.4160156-3.1030273-3.1567383-3.1030273H5.2148438  c-1.7407227,0-3.1567383,1.3920898-3.1567383,3.1030273V53.012207c0,1.7109375,1.4160156,3.1025391,3.1567383,3.1025391h22.5424805  l-0.0063477,6.5693359H24c-0.5522461,0-1,0.4477539-1,1s0.4477539,1,1,1h4.75h12.5H46c0.5522461,0,1-0.4477539,1-1s-0.4477539-1-1-1  h-3.7509766l-0.0063477-6.5693359h22.5424805C66.5258789,56.1147461,67.9418945,54.7231445,67.9418945,53.012207z   M5.2148438,7.315918h59.5703125c0.6376953,0,1.1567383,0.4946289,1.1567383,1.1030273v36.1640625H4.0581055V8.4189453  C4.0581055,7.8105469,4.5771484,7.315918,5.2148438,7.315918z M4.0581055,53.012207v-6.4291992h61.8837891v6.4291992  c0,0.6079102-0.519043,1.1025391-1.1567383,1.1025391h-23.543457H28.7583008H5.2148438  C4.5771484,54.1147461,4.0581055,53.6201172,4.0581055,53.012207z M40.2490234,62.684082H29.7509766l0.0063477-6.5693359h10.4853516  L40.2490234,62.684082z"></path><path d="M13.137207,49.3491211H10.625c-0.5522461,0-1,0.4477539-1,1s0.4477539,1,1,1h2.512207c0.5522461,0,1-0.4477539,1-1  S13.6894531,49.3491211,13.137207,49.3491211z"></path></svg>