<svg xmlns="http://www.w3.org/2000/svg" width="32" height="39.854" viewBox="0 0 32 39.854"><defs><style>.a{fill:#838383;}</style></defs><g transform="translate(0 0)"><path class="a" d="M32.682,31.5a.909.909,0,0,0-.64.24c-.72.72-1.6,1.6-2.4,2.321l-.08.08c-.8.8-1.6,1.52-2.321,2.241l-.32.32L25,34.7a.988.988,0,0,0-.64-.32h-.08a.87.87,0,0,0-.8.56.764.764,0,0,0,.24.96l2.561,2.561c.08.08.24.16.32.24a1,1,0,0,0,.96-.24c.8-.8,1.68-1.68,2.8-2.721.88-.88,1.92-1.84,2.8-2.721l.08-.08a.847.847,0,0,0,.08-1.04A.634.634,0,0,0,32.682,31.5Z" transform="translate(-13.798 -12.63)"/><path class="a" d="M39.5,32.93V13.957A5.769,5.769,0,0,0,33.48,8.1H32.367v2.419h.327a5.505,5.505,0,0,1,2.029.191,3.261,3.261,0,0,1,2.29,3.247v22.92a3.368,3.368,0,0,1-.982,2.419,3.454,3.454,0,0,1-2.618,1.019H13.586a3.375,3.375,0,0,1-3.6-3.438V14.467a4.612,4.612,0,0,1,.2-1.655,3.036,3.036,0,0,1,2.748-2.228,5.425,5.425,0,0,1,1.44,0H14.7V8.1H13.324a7.442,7.442,0,0,0-1.243.127A5.7,5.7,0,0,0,7.5,13.83V37.005A4.755,4.755,0,0,0,7.762,38.6a5.739,5.739,0,0,0,5.628,4.075H33.938a5.578,5.578,0,0,0,5.431-4.966c.065-1.273.065-2.547.065-3.82Z" transform="translate(-7.5 -2.819)"/><path class="a" d="M38.964,9.5c0,.72-.32,1.04-1.04,1.04H21.6c-.88,0-1.2-.32-1.2-1.2V6.861a.849.849,0,0,1,.96-.96,18.086,18.086,0,0,0,2.08-.08,3.846,3.846,0,0,0,2.721-2c.24-.32.4-.72.64-1.12a2.236,2.236,0,0,1,2.08-1.2h1.6A2.508,2.508,0,0,1,32.8,2.86a10.472,10.472,0,0,0,1.36,1.92A3.983,3.983,0,0,0,37.284,5.9c1.6-.08,1.68.08,1.68,1.68Z" transform="translate(-13.656 -1.5)"/><g transform="translate(2.802 9.658)"><circle class="a" cx="1.44" cy="1.44" r="1.44" transform="translate(8.642 0.72)"/><path class="a" d="M41.706,21.6a5.614,5.614,0,0,0-1.28-.8c-.08,0-.08-.08-.16-.08a1.678,1.678,0,0,0-.88-.32.611.611,0,0,0-.4.16,1.106,1.106,0,0,0-.48.88.854.854,0,0,0,.56.72.481.481,0,0,0,.32.08c.16,0,.32-.08.48-.08a.481.481,0,0,1,.32-.08c.32,0,.64.32.88,1.04.4.88-.08,1.92-.4,2.881-.08.24-.16.4-.24.64l-.96,2.641a.83.83,0,0,0-.48.64c-.32,1.92-1.28,2-1.52,2H37.3c-.48,0-.88-.32-1.12-.96l-.08-.16c-.16-.48-.24-.88-.32-.88a.926.926,0,0,0-.4-.56c0-.08-.08-.08-.08-.16-.48-1.28-1.12-2.961-1.68-4.721a1.867,1.867,0,0,1,.56-2.08.692.692,0,0,1,.48-.24c.08,0,.08.08.16.08.08.08.24.08.4.16h.08a.884.884,0,1,0,.08-1.76,1.507,1.507,0,0,0-.64.16c-.16.08-.24.08-.32.16a2.563,2.563,0,0,0-1.68,1.36,3.371,3.371,0,0,0-.24,2.641c.48,1.52,1.04,3.2,1.6,4.881a1.015,1.015,0,0,0-.08.48,6,6,0,0,0,.4,1.28,3.462,3.462,0,0,0,1.44,1.76,3.9,3.9,0,0,0,.56.24h.32v.16a9.737,9.737,0,0,1-9.762,9.442,9.846,9.846,0,0,1-2.8-19.284l.16-.08-.08-.16a1.69,1.69,0,0,1-.32-.8v-.32l-.16.08A11.182,11.182,0,0,0,26.9,44.565a11.032,11.032,0,0,0,11.123-10.8V33.6h.16a2.705,2.705,0,0,0,1.44-1.04,4.563,4.563,0,0,0,.88-2.241V30a5.1,5.1,0,0,0,.16-.56,18.006,18.006,0,0,0,.64-1.92c.24-.72.56-1.52.8-2.321.08-.32.16-.8.24-1.2A2.729,2.729,0,0,0,41.706,21.6Z" transform="translate(-15.7 -20.4)"/></g></g></svg>