<svg height='100px' width='100px'  fill="#000000" xmlns:x="http://ns.adobe.com/Extensibility/1.0/" xmlns:i="http://ns.adobe.com/AdobeIllustrator/10.0/" xmlns:graph="http://ns.adobe.com/Graphs/1.0/" xmlns="http://www.w3.org/2000/svg" xmlns:xlink="http://www.w3.org/1999/xlink" version="1.1" x="0px" y="0px" viewBox="0 0 113.386 155.906" enable-background="new 0 0 113.386 155.906" xml:space="preserve"><g><g i:extraneous="self"><g><path d="M92.755,11.839H20.63c-4.782,0-8.673,3.891-8.673,8.674v114.879c0,4.783,3.891,8.674,8.673,8.674h72.125     c4.782,0,8.673-3.891,8.673-8.674V20.513C101.428,15.73,97.538,11.839,92.755,11.839z M56.291,140.066H20.63     c-2.576,0-4.673-2.097-4.673-4.674v-33.812h40.333V140.066z M56.291,101.081H15.958V58.575h40.333V101.081z M97.428,135.392     c0,2.577-2.097,4.674-4.673,4.674H56.791v-38.485h40.638V135.392z M97.428,101.081H56.791V58.575h40.638V101.081z M97.428,54.575     H15.958V20.513c0-2.577,2.097-4.674,4.673-4.674h72.125c2.576,0,4.673,2.097,4.673,4.674V54.575z"></path><path d="M28.003,79.963h5.322v5.322c0,1.104,0.896,2,2,2s2-0.896,2-2v-5.322h5.323c1.104,0,2-0.896,2-2s-0.896-2-2-2h-5.323     V70.64c0-1.104-0.896-2-2-2s-2,0.896-2,2v5.322h-5.322c-1.104,0-2,0.896-2,2S26.898,79.963,28.003,79.963z"></path><path d="M70.738,79.963h14.646c1.104,0,2-0.896,2-2s-0.896-2-2-2H70.738c-1.104,0-2,0.896-2,2S69.634,79.963,70.738,79.963z"></path><path d="M70.776,118.287h14.569c1.104,0,2-0.896,2-2s-0.896-2-2-2H70.776c-1.104,0-2,0.896-2,2S69.672,118.287,70.776,118.287z"></path><path d="M70.776,127.109h14.569c1.104,0,2-0.896,2-2s-0.896-2-2-2H70.776c-1.104,0-2,0.896-2,2S69.672,127.109,70.776,127.109z"></path><path d="M27.407,128.616c0.391,0.391,0.902,0.586,1.414,0.586s1.023-0.195,1.414-0.586l5.09-5.09l5.09,5.09     c0.391,0.391,0.902,0.586,1.414,0.586s1.023-0.195,1.414-0.586c0.781-0.781,0.781-2.047,0-2.828l-5.09-5.09l5.09-5.09     c0.781-0.781,0.781-2.047,0-2.828s-2.047-0.781-2.828,0l-5.09,5.09l-5.09-5.09c-0.781-0.781-2.047-0.781-2.828,0     s-0.781,2.047,0,2.828l5.09,5.09l-5.09,5.09C26.626,126.569,26.626,127.835,27.407,128.616z"></path><circle cx="78.061" cy="70.64" r="2"></circle><circle cx="78.061" cy="85.285" r="2"></circle><path d="M83.669,33.083v-5.18c1.42,0.418,2.45,1.337,3.258,2.284l2.312-2.451c-1.308-1.364-3.035-2.59-5.569-2.98v-3.007h-2.673     v2.952c-3.258,0.334-5.848,2.367-5.848,5.486c0,3.202,2.199,5.151,5.848,5.792v5.569c-1.949-0.445-3.146-1.587-4.065-2.812     l-2.256,2.283c1.393,1.754,3.454,3.259,6.321,3.62v2.98h2.673v-2.924c3.955-0.362,6.238-2.617,6.238-5.597     C89.907,35.979,87.957,33.779,83.669,33.083z M80.996,32.61c-1.838-0.418-2.506-1.309-2.506-2.506     c0-1.003,0.752-2.116,2.506-2.395V32.61z M83.669,41.715v-5.291c2.144,0.473,2.896,1.504,2.896,2.729     C86.565,40.435,85.59,41.493,83.669,41.715z"></path><path d="M64.296,33.083v-5.18c1.42,0.418,2.451,1.337,3.258,2.284l2.311-2.451c-1.308-1.364-3.035-2.59-5.569-2.98v-3.007h-2.673     v2.952c-3.258,0.334-5.848,2.367-5.848,5.486c0,3.202,2.2,5.151,5.848,5.792v5.569c-1.95-0.445-3.146-1.587-4.066-2.812     l-2.256,2.283c1.393,1.754,3.454,3.259,6.321,3.62v2.98h2.673v-2.924c3.955-0.362,6.238-2.617,6.238-5.597     C70.534,35.979,68.584,33.779,64.296,33.083z M61.623,32.61c-1.838-0.418-2.506-1.309-2.506-2.506     c0-1.003,0.752-2.116,2.506-2.395V32.61z M64.296,41.715v-5.291c2.144,0.473,2.896,1.504,2.896,2.729     C67.192,40.435,66.217,41.493,64.296,41.715z"></path><path d="M44.923,33.083v-5.18c1.42,0.418,2.451,1.337,3.258,2.284l2.311-2.451c-1.308-1.364-3.035-2.59-5.569-2.98v-3.007H42.25     v2.952c-3.258,0.334-5.848,2.367-5.848,5.486c0,3.202,2.199,5.151,5.848,5.792v5.569c-1.949-0.445-3.146-1.587-4.065-2.812     l-2.256,2.283c1.393,1.754,3.454,3.259,6.321,3.62v2.98h2.673v-2.924c3.955-0.362,6.238-2.617,6.238-5.597     C51.161,35.979,49.211,33.779,44.923,33.083z M42.25,32.61c-1.838-0.418-2.506-1.309-2.506-2.506     c0-1.003,0.752-2.116,2.506-2.395V32.61z M44.923,41.715v-5.291c2.144,0.473,2.896,1.504,2.896,2.729     C47.819,40.435,46.844,41.493,44.923,41.715z"></path></g></g></g></svg>