<svg xmlns="http://www.w3.org/2000/svg" width="35" height="26.056" viewBox="0 0 35 26.056"><defs><style>.a{fill:#838383;}</style></defs><path class="a" d="M35.334,16H9.666A4.671,4.671,0,0,0,5,20.666V37.39a4.671,4.671,0,0,0,4.666,4.666H35.334A4.671,4.671,0,0,0,40,37.39V20.666A4.671,4.671,0,0,0,35.334,16Zm3.11,21.39a3.114,3.114,0,0,1-3.11,3.11H9.666a3.114,3.114,0,0,1-3.11-3.11V20.666a3.114,3.114,0,0,1,3.11-3.11H35.334a3.114,3.114,0,0,1,3.11,3.11Z" transform="translate(-5 -16)"/><path class="a" d="M28.944,34H20.778a.778.778,0,0,0,0,1.556h8.167a.778.778,0,0,0,0-1.556Z" transform="translate(-14.167 -27)"/><path class="a" d="M27.778,48h-7a.778.778,0,0,0,0,1.556h7a.778.778,0,0,0,0-1.556Z" transform="translate(-14.167 -35.556)"/><path class="a" d="M25.833,62H20.778a.778.778,0,0,0,0,1.556h5.056a.778.778,0,0,0,0-1.556Z" transform="translate(-14.167 -44.111)"/><path class="a" d="M56.13,39.992A4.416,4.416,0,1,0,49.667,40a6.739,6.739,0,0,0-3.474,5.855.778.778,0,1,0,1.556,0,5.172,5.172,0,0,1,3.372-4.818,4.385,4.385,0,0,0,3.557,0,5.159,5.159,0,0,1,3.366,4.821.778.778,0,1,0,1.556,0A6.737,6.737,0,0,0,56.13,39.992Zm-4.482-.427a.779.779,0,0,0-.2-.105,2.858,2.858,0,1,1,2.81.048l0,0a2.84,2.84,0,0,1-2.609.055Z" transform="translate(-30.174 -26.132)"/></svg>