<svg xmlns="http://www.w3.org/2000/svg" width="32" height="35.556" viewBox="0 0 32 35.556"><defs><style>.a{fill:#838383;}</style></defs><path class="a" d="M28.553,19.384,26.669,17.5l-8.676,8.676-3.769-3.769L12.34,24.291l5.653,5.653ZM32.944,5.056H31.167V1.5H27.611V5.056H13.389V1.5H9.833V5.056H8.056A3.539,3.539,0,0,0,4.518,8.611L4.5,33.5a3.555,3.555,0,0,0,3.556,3.556H32.944A3.566,3.566,0,0,0,36.5,33.5V8.611A3.566,3.566,0,0,0,32.944,5.056Zm0,28.444H8.056V13.944H32.944Z" transform="translate(-4.5 -1.5)"/></svg>