<svg height='100px' width='75px' fill="#000000" xmlns="http://www.w3.org/2000/svg"
     xmlns:xlink="http://www.w3.org/1999/xlink" version="1.1" x="0px" y="0px" viewBox="12 0 75 100"
     style="enable-background:new 12 0 75 100;" xml:space="preserve"><path d="M34.3994141,90h31.2011719c2.9536133,0,5.3569336-2.4033203,5.3569336-5.3569336V15.3569336  C70.9575195,12.4033203,68.5541992,10,65.6005859,10H34.3994141c-2.9536133,0-5.3569336,2.4033203-5.3569336,5.3569336v69.2861328  C29.0424805,87.5966797,31.4458008,90,34.3994141,90z M65.6005859,88H34.3994141  c-1.8510742,0-3.3569336-1.5058594-3.3569336-3.3569336V73.7285156h37.9150391v10.9145508  C68.9575195,86.4941406,67.4516602,88,65.6005859,88z M34.3994141,12h31.2011719  c1.8510742,0,3.3569336,1.5058594,3.3569336,3.3569336v56.371582H31.0424805v-56.371582  C31.0424805,13.5058594,32.5483398,12,34.3994141,12z"></path>
  <path
    d="M50,76.2382812c-2.6416016,0-4.7905273,2.1494141-4.7905273,4.7910156S47.3583984,85.8198242,50,85.8198242  s4.7905273-2.1489258,4.7905273-4.7905273S52.6416016,76.2382812,50,76.2382812z M50,83.8198242  c-1.5385742,0-2.7905273-1.2519531-2.7905273-2.7905273c0-1.5390625,1.2519531-2.7910156,2.7905273-2.7910156  s2.7905273,1.2519531,2.7905273,2.7910156C52.7905273,82.5678711,51.5385742,83.8198242,50,83.8198242z"></path>
  <path
    d="M42.0078125,19.0634766h8.5024414c0.5522461,0,1-0.4477539,1-1s-0.4477539-1-1-1h-8.5024414c-0.5522461,0-1,0.4477539-1,1  S41.4555664,19.0634766,42.0078125,19.0634766z"></path>
  <path
    d="M55.9970703,19.0634766h1.9951172c0.5522461,0,1-0.4477539,1-1s-0.4477539-1-1-1h-1.9951172c-0.5522461,0-1,0.4477539-1,1  S55.4448242,19.0634766,55.9970703,19.0634766z"></path></svg>
