<svg height='100px' width='100px'  fill="#838383" xmlns="http://www.w3.org/2000/svg" data-name="Layer 1" viewBox="0 0 32 32" x="0px" y="0px"><title>facebook</title><path d="M21.08,10.4H18.8L18.1,8.23h0a1.86,1.86,0,0,0-3.53,0l-0.7,2.17H11.59a1.85,1.85,0,0,0-1.77,1.28,1.83,1.83,0,0,0,.67,2.08l1.84,1.34-0.7,2.16a1.83,1.83,0,0,0,.67,2.08,1.85,1.85,0,0,0,2.18,0L16.33,18l1.84,1.34a1.85,1.85,0,0,0,2.18,0A1.83,1.83,0,0,0,21,17.26l-0.7-2.17,1.84-1.34A1.86,1.86,0,0,0,21.08,10.4Zm-2,3.14a1.85,1.85,0,0,0-.67,2.07L19,17.46l-1.57-1.14a1.85,1.85,0,0,0-2.18,0l-1.57,1.14,0.6-1.84a1.85,1.85,0,0,0-.67-2.07L12,12.4H14a1.85,1.85,0,0,0,1.77-1.28l0.6-1.84,0.6,1.84A1.85,1.85,0,0,0,18.7,12.4h1.94Z"></path><path d="M27.83,2.81H4.17A3.17,3.17,0,0,0,1,6V20.52a3.17,3.17,0,0,0,3.17,3.17h2l-2.48,4A1,1,0,0,0,5,29.07l10.09-5.38H27.83A3.17,3.17,0,0,0,31,20.52V6A3.17,3.17,0,0,0,27.83,2.81ZM29,20.52a1.17,1.17,0,0,1-1.17,1.17h-13a1,1,0,0,0-.47.12l-7,3.74,1.45-2.33A1,1,0,0,0,8,21.69H4.17A1.17,1.17,0,0,1,3,20.52V6A1.17,1.17,0,0,1,4.17,4.81H27.83A1.17,1.17,0,0,1,29,6V20.52Z"></path></svg>
