<svg xmlns="http://www.w3.org/2000/svg" width="32.188" height="61.435" viewBox="0 0 32.188 61.435"><defs><style>.a{fill:#838383;}</style></defs><g transform="translate(-29.042 -10)"><path class="a" d="M33.156,71.435H57.117a4.119,4.119,0,0,0,4.114-4.114V14.114A4.119,4.119,0,0,0,57.117,10H33.156a4.119,4.119,0,0,0-4.114,4.114V67.321A4.119,4.119,0,0,0,33.156,71.435ZM57.117,69.9H33.156a2.581,2.581,0,0,1-2.578-2.578V58.94H59.695v8.382A2.581,2.581,0,0,1,57.117,69.9ZM33.156,11.536H57.117a2.581,2.581,0,0,1,2.578,2.578V57.4H30.578V14.114A2.581,2.581,0,0,1,33.156,11.536Z"/><path class="a" d="M48.888,76.238a3.679,3.679,0,1,0,3.679,3.679A3.683,3.683,0,0,0,48.888,76.238Zm0,5.822a2.143,2.143,0,1,1,2.143-2.143A2.146,2.146,0,0,1,48.888,82.06Z" transform="translate(-3.752 -15.371)"/><path class="a" d="M41.776,18.6h6.529a.768.768,0,0,0,0-1.536H41.776a.768.768,0,1,0,0,1.536Z" transform="translate(-2.777 -1.639)"/><path class="a" d="M55.765,18.6H57.3a.768.768,0,1,0,0-1.536H55.765a.768.768,0,1,0,0,1.536Z" transform="translate(-6.023 -1.639)"/></g></svg>