<svg xmlns="http://www.w3.org/2000/svg" width="35.069" height="31.602" viewBox="0 0 35.069 31.602"><defs><style>.a{fill:#838383;}</style></defs><g transform="translate(-2.058 -5.316)"><path class="a" d="M50.74,20.7H47.987a.532.532,0,0,0-.532.532v9.6a.532.532,0,0,0,.532.532H50.74a.532.532,0,0,0,.532-.532v-9.6A.532.532,0,0,0,50.74,20.7Zm-.532,9.6H48.52V21.76h1.688Z" transform="translate(-21.232 -7.193)"/><path class="a" d="M40.046,27.029H37.294a.532.532,0,0,0-.532.532v6.232a.532.532,0,0,0,.532.532h2.752a.532.532,0,0,0,.532-.532V27.561A.532.532,0,0,0,40.046,27.029Zm-.532,6.232H37.826V28.093h1.688Z" transform="translate(-16.231 -10.155)"/><path class="a" d="M29.353,23.067H26.6a.532.532,0,0,0-.532.532V31.94a.532.532,0,0,0,.532.532h2.752a.532.532,0,0,0,.532-.532V23.6A.532.532,0,0,0,29.353,23.067Zm-.532,8.341H27.132V24.131H28.82Z" transform="translate(-11.229 -8.302)"/><path class="a" d="M18.659,31.7H15.907a.532.532,0,0,0-.532.532v3.748a.532.532,0,0,0,.532.532h2.752a.532.532,0,0,0,.532-.532V32.228A.532.532,0,0,0,18.659,31.7Zm-.532,3.748H16.439V32.76h1.688Z" transform="translate(-6.228 -12.338)"/><path class="a" d="M17.278,20.112A1.916,1.916,0,0,0,19.192,18.2,1.893,1.893,0,0,0,19,17.383l2.76-2.14a1.892,1.892,0,0,0,2.769-.372l2.253,1.041a1.913,1.913,0,0,0,3.792-.357,1.891,1.891,0,0,0-.116-.634l2.394-1.745A1.9,1.9,0,1,0,32.441,12c0,.05.011.1.015.146l-2.617,1.908a1.9,1.9,0,0,0-1.176-.415A1.916,1.916,0,0,0,26.907,14.8l-2.031-.939c0-.029.009-.056.009-.086a1.914,1.914,0,0,0-3.828,0,1.888,1.888,0,0,0,.1.593L18.3,16.584a1.9,1.9,0,0,0-1.018-.3,1.914,1.914,0,1,0,0,3.828Zm17.076-8.96a.849.849,0,1,1-.849.849A.85.85,0,0,1,34.354,11.152ZM28.662,14.7a.849.849,0,1,1-.849.849A.85.85,0,0,1,28.662,14.7ZM22.97,12.921a.849.849,0,1,1-.849.849A.85.85,0,0,1,22.97,12.921Zm-5.692,4.428a.849.849,0,1,1-.849.849A.85.85,0,0,1,17.278,17.349Z" transform="translate(-6.223 -2.232)"/><path class="a" d="M37.128,30.7V6.968a1.668,1.668,0,0,0-1.68-1.652H3.738a1.668,1.668,0,0,0-1.68,1.652V30.7a1.668,1.668,0,0,0,1.68,1.651h12l0,3.5h-2a.532.532,0,1,0,0,1.065H25.448a.532.532,0,1,0,0-1.065h-2l0-3.5h12A1.668,1.668,0,0,0,37.128,30.7ZM3.738,6.381H35.448a.6.6,0,0,1,.616.587v19.25H3.123V6.968A.6.6,0,0,1,3.738,6.381ZM3.123,30.7V27.282H36.063V30.7a.6.6,0,0,1-.616.587H3.738A.6.6,0,0,1,3.123,30.7Zm19.264,5.148H16.8l0-3.5h5.581Z"/><path class="a" d="M11.495,49.349H10.157a.532.532,0,0,0,0,1.065h1.337a.532.532,0,1,0,0-1.065Z" transform="translate(-3.539 -20.594)"/></g></svg>