<svg xmlns="http://www.w3.org/2000/svg" width="42.243" height="37.115" viewBox="0 0 42.243 37.115"><defs><style>.a{fill:#838383;}</style></defs><g transform="translate(-0.999 -2.809)"><path class="a" d="M25.715,11.805H22.5L21.519,8.75h0a2.619,2.619,0,0,0-4.971,0l-.986,3.056h-3.21a2.6,2.6,0,0,0-2.492,1.8,2.577,2.577,0,0,0,.943,2.929l2.591,1.887-.986,3.041a2.577,2.577,0,0,0,.943,2.929,2.6,2.6,0,0,0,3.07,0l2.6-1.887,2.591,1.887a2.6,2.6,0,0,0,3.07,0,2.577,2.577,0,0,0,.915-2.929l-.986-3.056,2.591-1.887a2.619,2.619,0,0,0-1.493-4.717ZM22.9,16.227a2.6,2.6,0,0,0-.943,2.915l.831,2.6-2.211-1.605a2.6,2.6,0,0,0-3.07,0L15.3,21.746l.845-2.591a2.6,2.6,0,0,0-.943-2.915L12.93,14.621h2.816a2.6,2.6,0,0,0,2.492-1.8l.845-2.591.845,2.591a2.6,2.6,0,0,0,2.436,1.8H25.1Z" transform="translate(3.56 1.692)"/><path class="a" d="M38.779,2.81H5.464A4.464,4.464,0,0,0,1,7.3V27.747a4.464,4.464,0,0,0,4.464,4.464H8.28L4.788,37.843a1.408,1.408,0,0,0,1.845,1.943L20.84,32.211H38.779a4.464,4.464,0,0,0,4.464-4.464V7.3A4.464,4.464,0,0,0,38.779,2.81Zm1.647,24.937a1.647,1.647,0,0,1-1.647,1.647H20.474a1.408,1.408,0,0,0-.662.169L9.956,34.83,12,31.549a1.408,1.408,0,0,0-1.141-2.154H5.464a1.647,1.647,0,0,1-1.647-1.647V7.3A1.647,1.647,0,0,1,5.464,5.626H38.779A1.647,1.647,0,0,1,40.427,7.3Z" transform="translate(0)"/></g></svg>